<svg id="Capa_1" enable-background="new 0 0 512 512" height="512" viewBox="0 0 512 512" width="512" xmlns="http://www.w3.org/2000/svg"><g><path d="m76 271h360v210h-360z" fill="#f25a3c"/><path d="m256 271h180v210h-180z" fill="#e63a3a"/><path d="m196 286h120v180h-120z" fill="#3d4566"/><path d="m256 286h60v180h-60z" fill="#2e2e4d"/><path d="m241 286h30v180h-30z" fill="#ff7f40"/><g fill="#f25a3c"><path d="m316 331h120v30h-120z"/><path d="m331 481h-30v-180l30-15z"/><path d="m421 286h30v195h-30z"/></g><path d="m61 286h30v195h-30z" fill="#ff7f40" transform="matrix(-1 0 0 -1 152 767)"/><path d="m76 331h120v30h-120z" fill="#ff7f40" transform="matrix(-1 0 0 -1 272 692)"/><path d="m181 481h30v-180l-30-15z" fill="#ff7f40"/><path d="m256 286h15v180h-15z" fill="#f25a3c"/><path d="m31 451-31 30v31h121l56.73-27.73 3.27-33.27z" fill="#e1e6f0"/><path d="m482 451h-151l.936 30.936 59.064 30.064h121v-31z" fill="#cfd7e6"/><path d="m331 451h-75-75l-60 61h135 135z" fill="#f3f5f9"/><path d="m331 451h-75v61h135z" fill="#e1e6f0"/><path d="m15 256c66.914 0 76.176-14.824 76.234-15l119.766-30v90h-75c-117.466 0-136-28.198-136-45z" fill="#3d4566"/><path d="m497 256c-66.914 0-76.176-14.824-76.234-15l-119.766-30v90h75c117.466 0 136-28.198 136-45z" fill="#2e2e4d"/><path d="m354.496 226h-98.496-97.136l-39.637 15c26.556 51.559 79.005 75 136.772 75 57.77 0 110.219-23.443 136.772-75z" fill="#4d5e80"/><path d="m392.772 241-38.276-15h-98.496v90c57.77 0 110.219-23.443 136.772-75z" fill="#3d4566"/><path d="m91 151h330v90h-330z" fill="#ff7f40"/><path d="m256 151h165v90h-165z" fill="#f25a3c"/><path d="m497 121c-69.3 0-99.101-38.401-106-48.9v-44.2c-35.4 8.1-84.901 17.1-135 17.1s-99.901-9-135-17.1v44.2c-6.899 10.8-37 48.9-106 48.9h-15v15c0 16.8 18.401 45 136 45h120 120c117.599 0 136-28.2 136-45v-15z" fill="#4d5e80"/><path d="m512 121v15c0 16.8-18.401 45-136 45h-120v-136c50.099 0 99.6-9 135-17.1v44.2c6.899 10.499 36.7 48.9 106 48.9z" fill="#3d4566"/><path d="m431.254 0c-.88.293-88.858 30-175.254 30-57.42 0-128.643-14.015-177.231-30l-7.515 29.106c3.765 1.26 93.369 30.894 184.746 30.894s180.981-30.278 186.738-32.197z" fill="#ff7f40"/><path d="m431.254 0c-.88.293-88.858 30-175.254 30v30c91.377 0 180.981-30.278 186.738-32.197z" fill="#f25a3c"/></g></svg>