<?xml version="1.0" encoding="utf-8"?>
<!-- Generator: Adobe Illustrator 24.3.0, SVG Export Plug-In . SVG Version: 6.00 Build 0)  -->
<svg version="1.1" xmlns="http://www.w3.org/2000/svg" xmlns:xlink="http://www.w3.org/1999/xlink" x="0px" y="0px"
	 viewBox="0 0 268 77.21" style="enable-background:new 0 0 268 77.21;" xml:space="preserve">
<style type="text/css">
	.st0{clip-path:url(#SVGID_2_);}
	.st1{fill:none;stroke:#000000;stroke-width:2;stroke-linecap:round;stroke-linejoin:round;stroke-miterlimit:10;}
	.st2{clip-path:url(#SVGID_4_);}
	.st3{clip-path:url(#SVGID_6_);}
	.st4{fill:#92D6C1;}
</style>
<g id="Layer_1">
</g>
<g id="Layer_2">
	<g>
		<g>
			<defs>
				<circle id="SVGID_5_" cx="135.4" cy="38.6" r="27.87"/>
			</defs>
			<clipPath id="SVGID_2_">
				<use xlink:href="#SVGID_5_"  style="overflow:visible;"/>
			</clipPath>
			<g class="st0">
				<path class="st4" d="M150.03,7.21c0,0-13.94,3.97-14.6,16.14s7.74,16.7,13.71,14.98s4.65-6.36,9.73-5.03
					c5.09,1.33,5.31,10.62-1.77,13.71c-7.08,3.1-13.94,20.57,1.11,24.33s28.31-28.67,16.37-42.87
					C162.64,14.27,150.03,7.21,150.03,7.21z"/>
			</g>
			<g class="st0">
				<path class="st4" d="M117.74,15.82c0,0,7.74,1.77,6.86,10.4s-0.88,12.26,4.87,15.42c5.75,3.16,4.65,16.21-3.54,14
					c-8.18-2.21-0.44-8.18-11.72-7.52s-14.16-10.31-13.05-19.65S112.43,15.38,117.74,15.82z"/>
			</g>
		</g>
		<g>
			<path d="M135.4,67.47c-15.92,0-28.87-12.95-28.87-28.87S119.48,9.73,135.4,9.73s28.87,12.95,28.87,28.87
				S151.32,67.47,135.4,67.47z M135.4,11.73c-14.82,0-26.87,12.05-26.87,26.87s12.05,26.87,26.87,26.87s26.87-12.05,26.87-26.87
				S150.21,11.73,135.4,11.73z"/>
		</g>
		<g>
			<path d="M136.26,50.33c0.16-0.3,0.43-0.54,0.65-0.8l0.49-0.46l0.19-0.19l0.19-0.33c0.03-0.02,0.21-0.25,0.27-0.32
				c0.02-0.02,0.06-0.06,0.06-0.08c0.05-0.03,0.19-0.11,0.19-0.13c0.05-0.02,0.38-0.05,0.46-0.06h0.24c0.25,0,0.62,0.24,0.86,0.33
				c0.08,0.03,0.14,0.4,0.16,0.41v0.08c0,0.11-0.02,0.19-0.06,0.3c-0.11,0.09-0.32,0.3-0.41,0.41c-0.05,0.05-0.53,0.19-0.56,0.24
				c-0.03,0.05-0.38,0.37-0.45,0.45c-0.3,0.57-0.59,1.43-0.59,2.09v0.21c0.02,0.03,0.1,0.22,0.13,0.27
				c0.03,0.03,0.11,0.13,0.14,0.13c0,0,0.08,0.02,0.11,0.02c0.13,0,0.18,0,0.27-0.08c0.1-0.06,0.38-0.62,0.4-0.65
				c0.03-0.03,0.18-0.25,0.21-0.32l0.25-0.67c0.02-0.02,0.06-0.11,0.06-0.13c0.03-0.05,0.11-0.27,0.14-0.33
				c-0.05,0-0.24-0.09-0.27-0.13c-0.06-0.02-0.16-0.21-0.18-0.33v-0.06c0.03-0.3,0.38-0.46,0.7-0.46c0.13,0,0.25,0.03,0.33,0.14
				c0,0,0.05,0.11,0.06,0.13c0.11,0.14,0.24,0.27,0.43,0.27c0.02,0,0.1-0.02,0.1-0.02c0.1-0.02,0.83-0.22,0.92-0.25
				c0.03,0,0.29-0.06,0.32-0.06c0.22-0.06,0.83-0.19,0.86-0.21c0.03,0,0.24-0.11,0.27-0.13c0.03-0.02,0.16-0.06,0.19-0.06
				c0.29-0.06,0.65-0.14,0.96-0.14c0.03,0,0.19,0.02,0.22,0.02c0.03,0.02,0.13,0.1,0.14,0.13v0.13c0.11,0.05,0.03,0.51-0.27,0.53
				h-0.03c-0.1,0-0.13,0.08-0.25,0.08c-0.03,0-0.1,0.02-0.11,0.02c-0.03,0-0.29-0.11-0.32-0.1c-0.03,0-0.3-0.02-0.33,0
				c-0.03,0.02-0.3,0.03-0.33,0.05c-0.03,0.02-0.41,0.06-0.46,0.06c-0.03,0.02-0.29,0.02-0.32,0.03c-0.05,0-0.41,0.05-0.46,0.06
				c-0.14,0.03-0.78,0.37-0.92,0.41v0.3c0,0.05,0.13,0.41,0.13,0.46c0,0.02,0.02,0.1,0.02,0.13c0,0.3-0.1,0.73-0.27,0.99
				c-0.02,0.02-0.13,0.13-0.13,0.14c-0.05,0.03-0.3,0.35-0.33,0.38c-0.18,0.21-0.32,0.32-0.53,0.46c-0.02,0.02-0.13,0.06-0.13,0.06
				c-0.05,0.05-0.24,0.22-0.27,0.27h-0.72c-0.03,0-0.49-0.1-0.67-0.13c-0.02-0.02-0.24-0.06-0.25-0.06
				c-0.06-0.02-0.59-0.11-0.67-0.14c-0.06-0.02-0.35-0.16-0.38-0.19c-0.08-0.06-0.45-0.43-0.53-0.53c-0.05-0.05-0.19-0.27-0.21-0.33
				c-0.02-0.05-0.06-0.27-0.06-0.32v-1.26C136.07,50.81,136.12,50.56,136.26,50.33z"/>
			<path d="M142.97,49.98c0.03-0.05,0.08-0.22,0.1-0.25s0.08-0.3,0.08-0.33c0.02-0.02-0.05-0.3-0.02-0.38l0.3-0.57l0.22-0.46
				c0.03-0.03,0.19-0.35,0.22-0.4c0.03-0.06,0.24-0.48,0.27-0.59c0.14-0.25,0.14-0.57,0.22-0.86l0.25-0.45
				c0-0.02,0.06-0.13,0.06-0.14c0.02-0.03,0.46-0.51,0.49-0.56c0.03-0.06,0.27-0.37,0.35-0.49l0.14-0.19
				c0.02-0.02,0.11-0.06,0.14-0.06c0.02-0.02,0.24-0.06,0.25-0.08c0.06-0.02,0.81-0.16,0.84-0.16c0.02,0,0.1-0.05,0.1-0.05
				c0.03-0.02,0.13-0.05,0.16-0.05h0.02c0.19,0,0.4,0.14,0.49,0.29c0.13,0.18,0.25,0.38,0.3,0.61c0,0.03,0.03,0.21,0.03,0.24
				c0.02,0,0.05,0.08,0.05,0.08c0,0.02,0.02,0.16,0.02,0.22c-0.03,0.24,0.08,0.56-0.13,0.73c-0.13,0.08-0.21,0.29-0.33,0.32
				c-0.02,0-0.14,0.05-0.14,0.06h-0.06c-0.13,0.1-0.45,0.06-0.48,0.06c-0.02-0.02-0.16-0.08-0.16-0.21l-0.02-0.03
				c-0.02-0.02-0.03-0.03-0.03-0.05c-0.05-0.24,0.08-0.27,0.13-0.29c0.02,0,0.14-0.03,0.16-0.03c0.18-0.03,0.21-0.35,0.25-0.51
				c0.03-0.05,0.18-0.29,0.18-0.33c0,0,0.02-0.08,0.02-0.09c0-0.14,0-0.14-0.06-0.25c-0.05-0.03-0.19-0.21-0.24-0.24
				c-0.05,0.02-0.25-0.13-0.29-0.05c-0.35,0.16-0.73,0.62-0.86,0.92l-0.08,0.13c-0.05,0.13-0.21,0.45-0.21,0.46
				c-0.02,0.03-0.08,0.25-0.08,0.33c-0.02,0.05-0.08,0.46-0.08,0.53c-0.03,0.06,0.02,0.4-0.02,0.46c-0.02,0.24-0.1,0.76-0.11,1
				c0,0.03-0.14,0.59-0.14,0.62c-0.02,0.08-0.17,1.37-0.16,1.45c0.02,0,0.03,0.02,0.05,0.02c0.03,0,0.61-0.08,1.24-0.22
				c0.11,0,0.24-0.1,0.37-0.11c0.18-0.05,1.21-0.29,1.35-0.3c0.38-0.1,0.69-0.16,0.7-0.16h0.03c0.19-0.05,0.35,0.05,0.46,0.17v0.02
				c0.02,0.02,0,0.05,0,0.05c0.1,0.08-0.08,0.46-0.24,0.48c-0.05,0-0.27,0.02-0.38-0.08c0,0-0.14-0.05-0.19-0.03
				c-0.02,0.03-0.16,0.11-0.38,0.18c-0.35,0.08-1.78,0.27-2.23,0.35c-0.35,0.05-0.69,0.19-0.8,0.25c-0.06,0.45-0.13,1.7-0.13,2.23
				l-0.21,1.39l-0.03,0.38c0,0.19-0.03,0.48,0.05,0.67c0,0.02,0.16,0.22,0.18,0.25v0.21c0,0.02-0.05,0.05-0.06,0.06
				c-0.03,0-0.32,0.05-0.4,0.06h-0.13c-0.02,0-0.13-0.11-0.13-0.13c-0.05-0.03-0.3-0.17-0.33-0.21c-0.05-0.03-0.27-0.35-0.3-0.38
				c0-0.02-0.05-0.06-0.06-0.08c-0.03-0.03-0.22-0.41-0.24-0.46l-0.11-0.19c-0.03-0.09-0.33-0.51-0.33-0.59
				c0-0.02-0.03-0.43-0.03-0.59c-0.02-0.16-0.19-0.62-0.19-0.67C142.62,52.01,142.82,50.78,142.97,49.98z"/>
		</g>
		<g>
			<g>
				<path class="st4" d="M135.4,77.21c-21.29,0-38.6-17.32-38.6-38.6S114.11,0,135.4,0c6.86,0,13.6,1.82,19.49,5.27
					c0.48,0.28,0.64,0.89,0.36,1.37c-0.28,0.48-0.89,0.64-1.37,0.36c-5.58-3.27-11.97-5-18.48-5c-20.18,0-36.6,16.42-36.6,36.6
					s16.42,36.6,36.6,36.6S172,58.79,172,38.6c0-5.85-1.34-11.43-3.97-16.61c-0.25-0.49-0.06-1.09,0.44-1.34
					c0.49-0.25,1.09-0.06,1.34,0.44c2.78,5.46,4.19,11.35,4.19,17.51C174,59.89,156.68,77.21,135.4,77.21z"/>
			</g>
			<g>
				<path class="st4" d="M158.3,13.09c-2.31,0-4.2-1.88-4.2-4.2c0-2.31,1.88-4.2,4.2-4.2s4.2,1.88,4.2,4.2
					C162.5,11.2,160.62,13.09,158.3,13.09z M158.3,6.69c-1.21,0-2.2,0.99-2.2,2.2c0,1.21,0.99,2.2,2.2,2.2s2.2-0.99,2.2-2.2
					C160.5,7.68,159.51,6.69,158.3,6.69z"/>
			</g>
		</g>
		<g>
			<path d="M70.4,17.54c0,0.63-0.07,1.24-0.21,1.83c-0.14,0.59-0.28,0.88-0.42,0.88c-0.11,0-0.17-0.04-0.17-0.13
				c0.02-0.06,0.03-0.13,0.05-0.19c0.24-0.57,0.36-1.33,0.36-2.28c0-2.15-0.86-3.97-2.57-5.47s-3.81-2.24-6.28-2.24
				c-3.99,0-8.08,1.96-12.27,5.87c-1.65,1.54-3.07,3.03-4.27,4.49c-1.15,1.38-3.4,4.29-6.74,8.74c-4.95,6.55-9.01,10.65-12.17,12.28
				c-1.42,0.73-2.34,1.09-2.74,1.09c-0.1,0-0.15-0.06-0.15-0.17c0.02-0.02,0.19-0.15,0.51-0.39c1.58-1.18,2.85-2.77,3.78-4.76
				c0.87-1.83,2.44-6.16,4.71-12.98c1.92-5.82,4.12-10,6.6-12.52c0.1-0.1,0.15-0.18,0.15-0.24c-0.21-0.06-0.69,0.28-1.43,1.04
				c-2.41,2.39-5.24,6.7-8.49,12.91c-2.01,3.82-3.77,6.71-5.28,8.67c-1.51,1.96-3.31,3.69-5.4,5.18c-3.43,2.46-6.88,3.69-10.34,3.69
				c-2.25,0-4.08-0.47-5.5-1.42S0,39.24,0,37.76c0-0.84,0.24-1.55,0.73-2.12c0.48-0.57,1.09-0.86,1.82-0.86
				c1.05,0,1.58,0.52,1.58,1.55c0,0.53-0.17,0.99-0.51,1.37s-0.76,0.57-1.25,0.57c-0.8,0-1.2-0.44-1.2-1.31
				c0-0.32-0.07-0.49-0.2-0.49c-0.26,0-0.39,0.45-0.39,1.33c0,1.33,0.66,2.41,1.98,3.26c1.32,0.85,3.01,1.27,5.09,1.27
				c4.23,0,8.37-2.19,12.43-6.57c1.63-1.76,3.02-3.48,4.15-5.16c1.13-1.67,3.39-5.32,6.77-10.93c1.42-2.38,3.03-4.54,4.82-6.48
				c1.79-1.94,3.06-2.91,3.82-2.91c0.11,0,0.17,0.05,0.17,0.15c-0.02,0.06-0.05,0.13-0.1,0.19c-1.5,1.65-2.86,4.76-4.08,9.34
				c-1.81,6.71-3.52,11.6-5.12,14.66c-1.59,2.98-3.62,5.23-6.11,6.77c-0.06,0.02-0.1,0.05-0.1,0.1c0.02,0.02,0.05,0.03,0.1,0.05
				c0.37,0,1.28-0.52,2.72-1.55c1.75-1.23,3.35-2.7,4.83-4.42c1.47-1.71,4.14-5.23,8-10.53c2.73-3.75,4.9-6.5,6.51-8.24
				c1.61-1.74,3.39-3.27,5.35-4.6c3.06-2.05,6.14-3.08,9.24-3.08c2.72,0,4.95,0.79,6.71,2.37C69.52,13.09,70.4,15.1,70.4,17.54z
				 M31.96,16.18c0,0.36-0.46,1.05-1.38,2.09c-1.39,1.57-2.74,2.36-4.03,2.36c-0.89,0-1.64-0.33-2.26-0.98s-0.92-1.46-0.92-2.41
				c0-0.92,0.33-2.03,0.99-3.32c0.82-1.62,1.24-2.76,1.24-3.42c0-0.83-0.39-1.49-1.16-1.99s-1.8-0.75-3.06-0.75
				c-3.61,0-7,1.46-10.16,4.37c-3.17,2.91-4.75,6.01-4.75,9.29c0,1.7,0.52,3.08,1.57,4.16c1.04,1.08,2.38,1.61,4.02,1.61
				c1.46,0,2.93-0.42,4.43-1.25s2.71-1.9,3.63-3.21c0.06-0.08,0.11-0.12,0.15-0.12c0.13,0,0.19,0.07,0.19,0.22
				c0,0.32-0.52,0.95-1.55,1.87c-2.14,1.92-4.45,2.89-6.94,2.89c-1.75,0-3.17-0.57-4.27-1.7s-1.65-2.6-1.65-4.42
				c0-3.51,1.62-6.74,4.86-9.68c3.24-2.94,6.79-4.42,10.64-4.42c1.58,0,2.83,0.4,3.72,1.19c0.9,0.79,1.35,1.88,1.35,3.28
				c0,1.04-0.52,2.61-1.55,4.73c-0.36,0.74-0.53,1.33-0.53,1.77c0,1.23,0.66,1.84,1.99,1.84c0.79,0,1.68-0.38,2.66-1.14
				c0.98-0.76,1.77-1.7,2.37-2.8c0.08-0.16,0.16-0.24,0.24-0.24C31.9,15.98,31.96,16.05,31.96,16.18z M58.73,10.96
				c0,0.08-0.22,0.23-0.65,0.46c-1.89,1-3.55,2.45-4.99,4.34c-1.44,1.89-3.08,4.8-4.92,8.71c-2.68,5.69-5.08,9.79-7.19,12.28
				c-2.11,2.49-4.72,4.28-7.82,5.36c1.44,0.22,2.55,0.33,3.32,0.33c2.49,0,4.48-0.53,5.98-1.59c1.5-1.06,3.61-3.44,6.34-7.13
				c0.18-0.23,0.32-0.34,0.41-0.34c0.06,0.02,0.1,0.06,0.1,0.15c0,0.16-0.76,1.21-2.28,3.13c-1.86,2.36-3.52,3.98-4.99,4.83
				c-1.46,0.86-3.26,1.29-5.4,1.29c-1.33,0-2.76-0.15-4.3-0.45c-1.08,0.36-2.19,0.55-3.33,0.55c-0.86,0-1.29-0.17-1.29-0.5
				c0-0.41,0.6-0.61,1.8-0.61c0.66,0,1.54,0.08,2.62,0.24h0.32c1.71-0.61,3.17-1.59,4.35-2.92c1.19-1.33,2.62-3.59,4.28-6.76
				c3.38-6.42,6.06-10.96,8.03-13.63c1.91-2.55,4.2-4.74,6.87-6.55c1.34-0.89,2.21-1.33,2.6-1.33
				C58.68,10.82,58.73,10.87,58.73,10.96z"/>
			<path d="M64.76,34.18c0,0.34-1.18,1.91-3.55,4.71c-1.91,2.3-3.42,3.45-4.52,3.45c-0.75,0-1.35-0.28-1.82-0.84
				c-0.47-0.56-0.7-1.26-0.7-2.1c0-0.87,0.26-1.82,0.78-2.84c-1.62,2.26-2.85,3.79-3.71,4.58c-0.86,0.79-1.69,1.19-2.5,1.19
				c-0.86,0-1.58-0.37-2.16-1.1c-0.58-0.74-0.87-1.66-0.87-2.78c0-3.11,2.19-5.85,6.57-8.25c1.92-1.07,3.48-1.6,4.66-1.6
				c1,0,1.5,0.49,1.5,1.46c0,0.28-0.06,0.64-0.19,1.09l1.24-2.35c0.49,0.11,0.91,0.17,1.29,0.17c0.44,0,1-0.06,1.7-0.17l-4.29,7.11
				c-1.49,2.49-2.23,4.13-2.23,4.92c0,0.76,0.32,1.14,0.95,1.14c0.65,0,1.68-0.74,3.11-2.22c1.43-1.48,2.87-3.31,4.35-5.48
				c0.1-0.16,0.19-0.24,0.27-0.24C64.71,34.03,64.76,34.08,64.76,34.18z M58.07,30.16c0-0.79-0.36-1.19-1.09-1.19
				c-1.49,0-3.44,1.46-5.86,4.37c-2.42,2.91-3.63,5.26-3.63,7.06c0,1.05,0.47,1.58,1.41,1.58c1.12,0,3.05-1.85,5.8-5.56
				C56.95,33.38,58.07,31.29,58.07,30.16z"/>
			<path d="M81.22,34.2c0,0.26-0.87,1.37-2.62,3.32c-1.96,2.16-4.49,4.09-7.6,5.79l-1.21,2.21c-2.2,4.06-4.67,7.19-7.4,9.39
				c-2.62,2.12-4.88,3.18-6.79,3.18c-0.69,0-1.27-0.21-1.72-0.63s-0.68-0.94-0.68-1.55c0-3.32,3.74-6.68,11.23-10.09
				c1.62-0.74,2.66-1.25,3.13-1.5l4.12-7.59c-1.79,2.38-3.06,3.91-3.8,4.6c-0.74,0.69-1.49,1.03-2.27,1.03
				c-0.84,0-1.56-0.37-2.15-1.12c-0.59-0.74-0.89-1.65-0.89-2.72c0-2.8,1.83-5.34,5.48-7.62c2.44-1.52,4.36-2.28,5.75-2.28
				c0.97,0,1.46,0.53,1.46,1.6c0,0.29-0.07,0.64-0.22,1.04l1.36-2.45c0.44,0.11,0.82,0.17,1.14,0.17c0.42,0,1.03-0.06,1.84-0.17
				c-0.11,0.15-0.82,1.36-2.13,3.64l-6.02,10.38c2.12-1.19,3.81-2.35,5.08-3.46s2.71-2.72,4.31-4.82c0.24-0.32,0.4-0.49,0.48-0.49
				C81.19,34.07,81.22,34.12,81.22,34.2z M67.31,44.72c-0.31,0.18-1.22,0.64-2.74,1.38c-7.37,3.65-11.06,6.94-11.06,9.85
				c0,0.5,0.19,0.92,0.56,1.26c0.37,0.34,0.85,0.51,1.43,0.51c1.78,0,3.51-0.91,5.19-2.73c1.68-1.82,3.79-5.08,6.33-9.79
				L67.31,44.72z M75,30.21c0-0.82-0.4-1.24-1.19-1.24c-1.46,0-3.38,1.45-5.79,4.35c-2.4,2.9-3.6,5.24-3.6,7.02
				c0,1.08,0.47,1.63,1.41,1.63c0.95,0,2.57-1.44,4.85-4.32C73.56,34.02,75,31.54,75,30.21z"/>
			<path d="M89.62,34.18c-0.02,0.05-0.1,0.18-0.24,0.39L88.33,36c-3.04,4.23-5.37,6.34-6.97,6.34c-0.76,0-1.4-0.27-1.91-0.81
				c-0.51-0.54-0.77-1.22-0.77-2.03c0-0.94,0.56-2.36,1.67-4.27l3.78-6.43c0.5,0.11,0.9,0.17,1.19,0.17c0.44,0,1.05-0.06,1.84-0.17
				l-5.51,9.05c-0.79,1.31-1.19,2.32-1.19,3.03c0,0.73,0.38,1.09,1.14,1.09c1.44,0,3.98-2.57,7.6-7.7c0.08-0.16,0.16-0.24,0.24-0.24
				C89.57,34.03,89.62,34.08,89.62,34.18z M89.27,24.15c0,0.57-0.24,1.1-0.72,1.59c-0.48,0.49-1,0.74-1.56,0.74
				c-0.73,0-1.09-0.36-1.09-1.09c0-0.53,0.25-1.05,0.75-1.54c0.5-0.49,1.03-0.74,1.58-0.74C88.92,23.1,89.27,23.45,89.27,24.15z"/>
			<path d="M101.66,34.18c0,0.21-1.14,1.57-3.42,4.08c-2.49,2.72-4.61,4.08-6.36,4.08c-1.13,0-2.1-0.43-2.91-1.3
				c-0.81-0.86-1.21-1.9-1.21-3.09c0-1.36,0.55-2.76,1.65-4.22c1.1-1.46,2.58-2.71,4.44-3.76c1.57-0.91,2.85-1.36,3.83-1.36
				c1.2,0,1.8,0.71,1.8,2.13c0,1.12-0.38,2.23-1.13,3.35c-0.75,1.12-1.5,1.67-2.24,1.67c-0.73,0-1.09-0.36-1.09-1.09
				c0-0.86,0.74-1.65,2.23-2.38c1.15-0.57,1.72-1.31,1.72-2.23c0-0.73-0.4-1.09-1.19-1.09c-1.34,0-2.99,1.33-4.95,4
				c-1.96,2.67-2.94,4.91-2.94,6.72c0,1.52,0.71,2.28,2.14,2.28c2.23,0,5.26-2.52,9.08-7.56c0.21-0.26,0.36-0.39,0.46-0.39
				C101.62,34.05,101.66,34.1,101.66,34.18z"/>
		</g>
		<g>
			<path d="M222.85,33.4c0,0.87-0.87,1.61-2.62,2.22c-1.75,0.61-3.88,0.91-6.4,0.91c-2.54,0-5.69-0.35-9.46-1.04
				c-1.99,1.04-3.81,2.57-5.46,4.6c-1.65,2.03-3.42,4.9-5.31,8.62s-3.28,6.2-4.16,7.44c-0.88,1.24-2.09,2.44-3.63,3.6
				c-4.06,3.01-8.27,4.51-12.64,4.51c-2.33,0-4.23-0.49-5.71-1.48s-2.22-2.26-2.22-3.83c0-0.79,0.23-1.47,0.7-2.04
				c0.47-0.57,1.03-0.85,1.67-0.85c1.05,0,1.58,0.55,1.58,1.65c0,0.52-0.16,0.96-0.49,1.33c-0.32,0.37-0.72,0.56-1.19,0.56
				c-0.76,0-1.14-0.37-1.14-1.12c0-0.39-0.07-0.58-0.19-0.58c-0.28,0-0.41,0.4-0.41,1.19c0,1.31,0.67,2.42,2.03,3.32
				c1.35,0.91,3.01,1.36,4.99,1.36c4.33,0,8.22-1.96,11.67-5.87c1.62-1.83,3.7-4.84,6.26-9.05c4.17-6.82,8.53-11.31,13.08-13.46
				c-0.87-0.15-2.18-0.41-3.93-0.8c-4.11-0.89-7.25-1.33-9.44-1.33c-0.23,0-0.91,0.03-2.04,0.1c0.76,1.42,1.14,3.05,1.14,4.88
				c0,3.56-1.35,6.9-4.05,10.02c-2.7,3.12-5.59,4.68-8.66,4.68c-1.28,0-2.32-0.42-3.12-1.27c-0.8-0.85-1.2-1.94-1.2-3.29
				c0-1.84,0.7-3.88,2.1-6.12c1.4-2.24,3.21-4.2,5.43-5.87c2.22-1.67,4.66-2.84,7.31-3.51c-1.28-1.73-3.09-2.6-5.45-2.6
				c-1.99,0-4,0.58-6.02,1.74s-3.81,2.73-5.34,4.73c-0.23,0.31-0.38,0.46-0.46,0.46c-0.1,0-0.16-0.05-0.19-0.15
				c0-0.28,0.66-1.08,1.99-2.41c3.18-3.17,6.51-4.76,9.99-4.76c2.7,0,4.75,0.95,6.16,2.84c1.96-0.57,4.2-0.85,6.74-0.85
				c1.31,0,2.51,0.08,3.59,0.24c1.15,0.18,3.96,0.73,8.44,1.65c3.74-1.63,7.33-2.45,10.77-2.45C221.08,31.31,222.85,32,222.85,33.4z
				 M188.57,37.03c0-1.29-0.3-2.49-0.9-3.59c-3.62,0.6-7,2.47-10.12,5.6c-3.12,3.14-4.68,6.23-4.68,9.27c0,1.16,0.36,2.14,1.08,2.93
				c0.72,0.79,1.61,1.19,2.66,1.19c2.73,0,5.41-1.69,8.03-5.06S188.57,40.56,188.57,37.03z M222.46,33.44
				c0-0.47-0.46-0.86-1.37-1.19c-0.91-0.32-2.07-0.49-3.46-0.49c-3.46,0-6.82,0.73-10.07,2.18c0.4,0.06,1.48,0.26,3.23,0.58
				c2.59,0.5,4.88,0.75,6.89,0.75c1.31,0,2.43-0.18,3.37-0.55C221.99,34.38,222.46,33.95,222.46,33.44z"/>
			<path d="M208.51,55.56c0,0.13-0.49,0.72-1.46,1.78c-1.23,1.36-2.39,2.04-3.48,2.04c-1.23,0-1.85-0.71-1.85-2.13
				c0-0.45,0.1-1.03,0.29-1.72c-1.02,0.89-1.85,1.77-2.49,2.64s-1.74,2.65-3.31,5.34c-0.86-0.06-1.36-0.1-1.5-0.1
				c-0.06,0-0.56,0.03-1.48,0.1l3.98-6.45c1.99-3.23,2.98-5.24,2.98-6.02c0-0.45-0.19-0.68-0.56-0.68c-0.91,0-2.55,1.74-4.94,5.23
				c-0.15,0.23-0.28,0.34-0.39,0.34c-0.06-0.02-0.1-0.06-0.1-0.15c0.02-0.08,0.05-0.15,0.1-0.19l0.44-0.61
				c2.49-3.32,4.19-4.98,5.08-4.98c1.3,0,1.94,0.83,1.94,2.5c0,1.25-0.66,2.9-1.99,4.95c0.84-0.97,1.64-1.76,2.4-2.38
				c0.61-1.44,1.38-2.64,2.29-3.61c0.91-0.97,1.74-1.46,2.46-1.46c0.5,0,0.75,0.22,0.75,0.65c0,0.78-1.12,1.88-3.37,3.32
				c-0.36,0.23-0.89,0.56-1.6,0.99l-0.29,0.24c-0.23,0.74-0.34,1.36-0.34,1.84c0,1.36,0.51,2.04,1.53,2.04
				c1.26,0,2.64-1.05,4.13-3.14c0.32-0.36,0.53-0.54,0.61-0.54C208.46,55.41,208.51,55.46,208.51,55.56z"/>
			<path d="M225.46,55.56c0,0.34-1.18,1.91-3.55,4.71c-1.91,2.3-3.42,3.45-4.52,3.45c-0.75,0-1.35-0.28-1.82-0.84
				c-0.47-0.56-0.7-1.26-0.7-2.1c0-0.87,0.26-1.82,0.78-2.84c-1.62,2.26-2.85,3.79-3.71,4.58c-0.86,0.79-1.69,1.19-2.5,1.19
				c-0.86,0-1.58-0.37-2.16-1.1c-0.58-0.74-0.87-1.66-0.87-2.78c0-3.11,2.19-5.85,6.57-8.25c1.92-1.07,3.48-1.6,4.66-1.6
				c1,0,1.5,0.49,1.5,1.46c0,0.28-0.07,0.64-0.19,1.09l1.24-2.35c0.49,0.11,0.91,0.17,1.29,0.17c0.44,0,1-0.06,1.7-0.17l-4.29,7.11
				c-1.49,2.49-2.23,4.13-2.23,4.92c0,0.76,0.32,1.14,0.95,1.14c0.65,0,1.68-0.74,3.11-2.22c1.42-1.48,2.87-3.31,4.35-5.48
				c0.1-0.16,0.19-0.24,0.27-0.24C225.41,55.41,225.46,55.46,225.46,55.56z M218.78,51.54c0-0.79-0.36-1.19-1.09-1.19
				c-1.49,0-3.44,1.46-5.86,4.37s-3.63,5.26-3.63,7.06c0,1.05,0.47,1.58,1.41,1.58c1.12,0,3.05-1.85,5.8-5.56
				C217.66,54.76,218.78,52.67,218.78,51.54z"/>
			<path d="M239.27,55.51c0,0.19-0.51,0.82-1.53,1.87c-1.41,1.48-2.64,2.21-3.69,2.21c-0.71,0-1.3-0.39-1.77-1.17
				c-1.44,1.99-2.61,3.37-3.52,4.14c-0.91,0.77-1.82,1.15-2.74,1.15c-0.82,0-1.52-0.29-2.09-0.86c-0.57-0.57-0.85-1.27-0.85-2.07
				c0-0.95,0.54-2.34,1.62-4.17l3.83-6.43c0.79,0.08,1.33,0.12,1.6,0.12c0.6,0,1.08-0.04,1.43-0.12l-5.07,8.2
				c-1.12,1.84-1.67,3.12-1.67,3.83c0,0.76,0.43,1.14,1.29,1.14c0.79,0,1.6-0.36,2.44-1.09s2.03-2.1,3.58-4.12
				c-0.15-0.49-0.22-0.91-0.22-1.29c0-1.47,0.45-2.98,1.36-4.54c0.91-1.55,1.78-2.33,2.62-2.33c0.4,0,0.61,0.23,0.61,0.7
				c0,1.21-1.34,3.71-4.03,7.5c0.34,0.73,0.87,1.09,1.58,1.09c1.23,0,2.73-1.1,4.5-3.29c0.32-0.39,0.54-0.58,0.63-0.58
				C239.24,55.41,239.27,55.44,239.27,55.51z"/>
			<path d="M251.33,55.58c0,0.05-0.15,0.26-0.44,0.63l-1.04,1.31c-3.35,4.13-6.22,6.2-8.62,6.2c-1.13,0-2.08-0.41-2.85-1.23
				c-0.77-0.82-1.15-1.84-1.15-3.07c0-2.91,2.03-5.47,6.09-7.69c2.13-1.16,3.87-1.75,5.21-1.75c0.58,0,1.08,0.17,1.49,0.52
				s0.62,0.77,0.62,1.27c0,1.16-0.76,2.16-2.28,2.97c-1.52,0.82-4.06,1.58-7.62,2.29c-1.1,1.67-1.65,3.06-1.65,4.17
				c0,1.39,0.75,2.09,2.26,2.09c2.56,0,5.69-2.49,9.4-7.48c0.19-0.26,0.36-0.39,0.49-0.39C251.3,55.45,251.33,55.5,251.33,55.58z
				 M249.28,51.08c0-0.52-0.28-0.78-0.85-0.78c-0.86,0-1.99,0.59-3.38,1.78c-1.4,1.19-2.77,2.73-4.11,4.62
				c2.33-0.6,4.3-1.44,5.92-2.54S249.28,52.05,249.28,51.08z"/>
			<path d="M264.35,38.37c-6.79,11.3-10.75,17.95-11.88,19.94s-1.69,3.31-1.69,3.95c0,0.73,0.31,1.09,0.92,1.09
				c1.36,0,3.85-2.57,7.48-7.7c0.08-0.16,0.18-0.24,0.29-0.24c0.06,0.02,0.1,0.06,0.1,0.15c0,0.1-0.08,0.23-0.24,0.39l-1.04,1.43
				c-3.06,4.23-5.32,6.34-6.78,6.34c-0.7,0-1.27-0.26-1.71-0.79c-0.45-0.53-0.67-1.19-0.67-2c0-0.89,0.21-1.75,0.62-2.58
				c0.41-0.83,1.82-3.24,4.21-7.22c2.93-4.87,5.39-9.09,7.4-12.66c0.49,0.13,0.91,0.19,1.29,0.19
				C263.27,38.66,263.83,38.56,264.35,38.37z"/>
			<path d="M268.35,46.14c0,0.65-1.01,1.93-3.03,3.85c-0.1,0.5-0.15,0.94-0.15,1.31c0,0.94,0.43,2.43,1.29,4.46
				c0.44,1.02,0.66,1.88,0.66,2.57c0,1.46-0.71,2.72-2.12,3.78s-3.09,1.6-5.03,1.6c-1.1,0-1.98-0.31-2.63-0.93
				c-0.65-0.62-0.98-1.46-0.98-2.51c0-1.21,0.43-2.39,1.3-3.54c0.87-1.15,1.76-1.72,2.68-1.72c0.16,0,0.31,0.03,0.44,0.1l1.94-2.38
				c0.58-0.7,1.36-1.66,2.33-2.89c0.28-1.13,0.7-2.1,1.26-2.91s1.12-1.21,1.67-1.21C268.22,45.72,268.35,45.86,268.35,46.14z
				 M264.98,55.71c0-0.49-0.02-0.97-0.05-1.44c-0.03-0.48-0.05-1.16-0.05-2.05c0-0.73,0.03-1.33,0.1-1.82
				c-0.91,1.15-2.22,2.77-3.93,4.85c0.31,0.26,0.46,0.57,0.46,0.95c0,0.95-0.78,1.6-2.35,1.94c-0.63,0.15-1.18,0.49-1.64,1.03
				s-0.69,1.11-0.69,1.71c0,0.65,0.23,1.19,0.7,1.63c0.47,0.44,1.05,0.65,1.75,0.65c1.36,0,2.65-0.79,3.87-2.37
				C264.37,59.22,264.98,57.52,264.98,55.71z"/>
		</g>
	</g>
</g>
</svg>
