<svg xmlns="http://www.w3.org/2000/svg" xmlns:xlink="http://www.w3.org/1999/xlink" version="1.1" x="0px" y="0px" viewBox="0 0 367.77 77.21" style="enable-background:new 0 0 367.77 77.21;" xml:space="preserve">	<style type="text/css">
	.st0{clip-path:url(#SVGID_2_);}
	.st1{fill:none;stroke:#000000;stroke-width:2;stroke-linecap:round;stroke-linejoin:round;stroke-miterlimit:10;}
	.st2{clip-path:url(#SVGID_4_);}
	.st3{clip-path:url(#SVGID_6_);}
	.st4{fill:#92D6C1;}
</style>
	<g id="Layer_1">
</g>
	<g id="Layer_2">
	<g>
		<g>
			<defs>
				<circle id="SVGID_5_" cx="135.4" cy="38.6" r="27.87"/>
			</defs>
			<clipPath id="SVGID_2_">
				<use xlink:href="#SVGID_5_" style="overflow:visible;"/>
			</clipPath>
			<g class="st0">
				<path class="st4" d="M150.03,7.21c0,0-13.94,3.97-14.6,16.14s7.74,16.7,13.71,14.98s4.65-6.36,9.73-5.03      c5.09,1.33,5.31,10.62-1.77,13.71c-7.08,3.1-13.94,20.57,1.11,24.33s28.31-28.67,16.37-42.87      C162.64,14.27,150.03,7.21,150.03,7.21z"/>
			</g>
			<g class="st0">
				<path class="st4" d="M117.74,15.82c0,0,7.74,1.77,6.86,10.4s-0.88,12.26,4.87,15.42c5.75,3.16,4.65,16.21-3.54,14      c-8.18-2.21-0.44-8.18-11.72-7.52s-14.16-10.31-13.05-19.65S112.43,15.38,117.74,15.82z"/>
			</g>
		</g>
		<g>
			<path d="M135.4,67.47c-15.92,0-28.87-12.95-28.87-28.87S119.48,9.73,135.4,9.73s28.87,12.95,28.87,28.87     S151.32,67.47,135.4,67.47z M135.4,11.73c-14.82,0-26.87,12.05-26.87,26.87s12.05,26.87,26.87,26.87s26.87-12.05,26.87-26.87     S150.21,11.73,135.4,11.73z"/>
		</g>

		<g>
			<g>
				<path class="st4" d="M135.4,77.21c-21.29,0-38.6-17.32-38.6-38.6S114.11,0,135.4,0c6.86,0,13.6,1.82,19.49,5.27      c0.48,0.28,0.64,0.89,0.36,1.37c-0.28,0.48-0.89,0.64-1.37,0.36c-5.58-3.27-11.97-5-18.48-5c-20.18,0-36.6,16.42-36.6,36.6      s16.42,36.6,36.6,36.6S172,58.79,172,38.6c0-5.85-1.34-11.43-3.97-16.61c-0.25-0.49-0.06-1.09,0.44-1.34      c0.49-0.25,1.09-0.06,1.34,0.44c2.78,5.46,4.19,11.35,4.19,17.51C174,59.89,156.68,77.21,135.4,77.21z"/>
			</g>
			<g>
				<path class="st4" d="M158.3,13.09c-2.31,0-4.2-1.88-4.2-4.2c0-2.31,1.88-4.2,4.2-4.2s4.2,1.88,4.2,4.2      C162.5,11.2,160.62,13.09,158.3,13.09z M158.3,6.69c-1.21,0-2.2,0.99-2.2,2.2c0,1.21,0.99,2.2,2.2,2.2s2.2-0.99,2.2-2.2      C160.5,7.68,159.51,6.69,158.3,6.69z"/>
			</g>
		</g>








	</g>
</g>
</svg>
