<svg id="Capa_1" enable-background="new 0 0 496.991 496.991" height="512" viewBox="0 0 496.991 496.991" width="512" xmlns="http://www.w3.org/2000/svg"><g><path d="m353.472 392.454-4.489-6.178h-200.975l-4.489 6.178c-28.818 39.663-.483 95.272 48.543 95.272h112.865c49.028 0 77.362-55.609 48.545-95.272z" fill="#e44c53"/><path d="m348.983 386.276v-138.307h-200.975v138.306c-21.612 29.746-.363 71.451 36.406 71.451h128.163c36.769 0 58.018-41.705 36.406-71.45z" fill="#fb6449"/><path d="m418.348 192.779-7.263 2.36-62.105 191.138 4.489 6.178c28.817 39.664 90.46 29.901 105.61-16.727l34.877-107.341c15.151-46.627-28.981-90.758-75.608-75.608z" fill="#fb6449"/><path d="m411.085 195.139-131.537-42.739-31.052 95.569 100.484 138.308c21.612 29.746 67.842 22.424 79.204-12.544l39.605-121.89c11.362-34.969-21.735-68.066-56.704-56.704z" fill="#fb8151"/><path d="m248.494 69.376v7.637l162.592 118.13 7.263-2.36c46.627-15.15 56.391-76.793 16.727-105.61l-91.31-66.341c-39.663-28.818-95.272-.483-95.272 48.544z" fill="#e44c53"/><path d="m248.494 77.012-81.294 111.892 81.296 59.065 162.59-52.827c34.969-11.362 42.291-57.592 12.545-79.204l-103.686-75.332c-29.747-21.612-71.451-.362-71.451 36.406z" fill="#fb6449"/><path d="m78.642 192.782 7.263 2.36 162.592-118.13v-7.637c0-49.027-55.609-77.361-95.272-48.544l-91.31 66.341c-39.663 28.818-29.9 90.461 16.727 105.61z" fill="#fb6449"/><path d="m85.905 195.142 81.295 111.892 81.296-59.065.002-170.957c0-36.768-41.704-58.018-71.451-36.406l-103.686 75.333c-29.747 21.612-22.424 67.842 12.544 79.203z" fill="#fb8151"/><path d="m143.522 392.456 4.489-6.178-62.105-191.139-7.263-2.36c-46.627-15.151-90.759 28.981-75.609 75.608l34.877 107.341c15.151 46.628 76.794 56.391 105.611 16.728z" fill="#fb8151"/><path d="m148.011 386.277 100.485-138.308-162.589-52.83c-34.969-11.362-68.066 21.735-56.704 56.703l39.605 121.89c11.361 34.97 57.591 42.292 79.203 12.545z" fill="#fb9c59"/><circle cx="248.496" cy="247.969" fill="#e44c53" r="153"/><circle cx="248.496" cy="247.969" fill="#79493c" r="123"/><circle cx="248.496" cy="247.969" fill="#fb6449" r="93"/><g fill="#fbf6c3"><circle cx="202.845" cy="262.802" r="15"/><circle cx="248.496" cy="295.969" r="15"/><circle cx="294.146" cy="262.802" r="15"/><circle cx="276.709" cy="209.137" r="15"/><circle cx="220.282" cy="209.137" r="15"/></g><circle cx="248.496" cy="430.969" fill="#fbcf72" r="7.5"/><circle cx="278.496" cy="457.726" fill="#fbcf72" r="7.5"/><circle cx="218.496" cy="457.726" fill="#fbcf72" r="7.5"/><circle cx="188.496" cy="430.969" fill="#fbcf72" r="7.5"/><circle cx="308.496" cy="430.969" fill="#fbcf72" r="7.5"/><circle cx="422.539" cy="304.519" fill="#faec8e" r="7.5"/><circle cx="457.257" cy="284.256" fill="#faec8e" r="7.5"/><circle cx="438.716" cy="341.319" fill="#faec8e" r="7.5"/><circle cx="403.998" cy="361.583" fill="#faec8e" r="7.5"/><circle cx="441.08" cy="247.456" fill="#faec8e" r="7.5"/><circle cx="356.06" cy="99.919" fill="#fbcf72" r="7.5"/><circle cx="347.517" cy="60.639" fill="#fbcf72" r="7.5"/><circle cx="396.058" cy="95.906" fill="#fbcf72" r="7.5"/><circle cx="404.601" cy="135.186" fill="#fbcf72" r="7.5"/><circle cx="307.519" cy="64.652" fill="#fbcf72" r="7.5"/><circle cx="140.931" cy="99.919" fill="#faec8e" r="7.5"/><circle cx="100.933" cy="95.906" fill="#faec8e" r="7.5"/><circle cx="149.474" cy="60.639" fill="#faec8e" r="7.5"/><circle cx="189.472" cy="64.652" fill="#faec8e" r="7.5"/><circle cx="92.39" cy="135.186" fill="#faec8e" r="7.5"/><circle cx="74.452" cy="304.519" fill="#fbf6c3" r="7.5"/><circle cx="58.276" cy="341.319" fill="#fbf6c3" r="7.5"/><circle cx="39.735" cy="284.256" fill="#fbf6c3" r="7.5"/><circle cx="55.911" cy="247.456" fill="#fbf6c3" r="7.5"/><circle cx="92.993" cy="361.583" fill="#fbf6c3" r="7.5"/></g></svg>