<svg height="464pt" viewBox="0 -40 464 464" width="464pt" xmlns="http://www.w3.org/2000/svg"><path d="m182 192-.199219-.65625c-13.835937-45.277344-7.164062-94.34375 18.253907-134.289062l15.945312-25.054688 10.664062-8 8.671876-4.753906 12.664062 12.753906 17.230469 27.296875c24.953125 39.523437 31.617187 87.902344 18.273437 132.703125l-18.246094 9.734375-65.921874-1.734375zm0 0" fill="#a88e74"/><path d="m392 104-15.632812 27.359375c-10.503907 18.378906-13.503907 40.105469-8.367188 60.640625l16 8 49.96875 1.753906 14.03125-9.753906c5.136719-20.535156 2.136719-42.261719-8.367188-60.640625l-15.632812-27.359375-12-12.496094-9.335938 4.496094zm0 0" fill="#a88e74"/><path d="m365.71875 167.535156c.734375.269532 1.503906.425782 2.28125.464844h80c.777344-.039062 1.546875-.195312 2.28125-.464844-.300781-5.242187-1.105469-10.445312-2.402344-15.535156h-79.78125c-1.292968 5.089844-2.085937 10.292969-2.378906 15.535156zm0 0" fill="#8d7761"/><path d="m443.601562 139.359375c-1.1875-2.738281-2.523437-5.40625-4-8l-4.570312-8h-54.09375l-4.570312 8c-1.476563 2.59375-2.8125 5.261719-4 8zm0 0" fill="#8d7761"/><path d="m40 104-15.632812 27.359375c-10.503907 18.378906-13.503907 40.105469-8.367188 60.640625l12.664062 8 56.664063 1.273438 10.671875-9.273438c5.136719-20.535156 2.136719-42.261719-8.367188-60.640625l-15.632812-27.359375-10.601562-11.535156-13.398438 3.535156zm0 0" fill="#a88e74"/><path d="m13.71875 167.535156c.734375.269532 1.503906.425782 2.28125.464844h80c.777344-.039062 1.546875-.195312 2.28125-.464844-.300781-5.242187-1.105469-10.445312-2.402344-15.535156h-79.78125c-1.292968 5.089844-2.085937 10.292969-2.378906 15.535156zm0 0" fill="#8d7761"/><path d="m91.601562 139.359375c-1.1875-2.738281-2.523437-5.40625-4-8l-4.570312-8h-54.09375l-4.570312 8c-1.476563 2.59375-2.8125 5.261719-4 8zm0 0" fill="#8d7761"/><path d="m16 308h432v76h-432zm0 0" fill="#8d7761"/><path d="m80 224h304v72h-304zm0 0" fill="#8d7761"/><path d="m88 224h64v32h-64zm0 0" fill="#746250"/><path d="m312 224h64v32h-64zm0 0" fill="#746250"/><path d="m160 192 8 32 4 8 121.328125 1.207031 2.671875-9.207031 8-32zm0 0" fill="#8d7761"/><path d="m320 384h-176v-64l12.664062-8 149.96875-.65625 13.367188 8.65625zm0 0" fill="#a88e74"/><path d="m152 224h160v74.664062h-160zm0 0" fill="#9a826a"/><path d="m152 280h160v8h-160zm0 0" fill="#937c65"/><path d="m448 320h-432l-16-32h464zm0 0" fill="#746250"/><path d="m216 248h32v40h-32zm0 0" fill="#8d7761"/><path d="m232 216-24 32h48zm0 0" fill="#a88e74"/><path d="m24 216h64v72h-64zm0 0" fill="#a88e74"/><path d="m48 248h16v40h-16zm0 0" fill="#8d7761"/><path d="m376 216h64v72h-64zm0 0" fill="#a88e74"/><path d="m400 248h16v40h-16zm0 0" fill="#8d7761"/><path d="m104 344h16v40h-16zm0 0" fill="#746250"/><path d="m72 344h16v40h-16zm0 0" fill="#746250"/><path d="m40 344h16v40h-16zm0 0" fill="#746250"/><path d="m408 344h16v40h-16zm0 0" fill="#746250"/><path d="m376 344h16v40h-16zm0 0" fill="#746250"/><path d="m344 344h16v40h-16zm0 0" fill="#746250"/><path d="m248 32h-32l6.054688-24.238281c1.144531-4.5625 5.242187-7.761719 9.945312-7.761719s8.800781 3.199219 9.945312 7.761719zm0 0" fill="#8d7761"/><path d="m168 344h16v40h-16zm0 0" fill="#746250"/><path d="m280 344h16v40h-16zm0 0" fill="#746250"/><path d="m120 296c-4.417969 0-8-3.582031-8-8v-32c0-4.417969 3.582031-8 8-8s8 3.582031 8 8v32c0 4.417969-3.582031 8-8 8zm0 0" fill="#746250"/><path d="m344 296c-4.417969 0-8-3.582031-8-8v-32c0-4.417969 3.582031-8 8-8s8 3.582031 8 8v32c0 4.417969-3.582031 8-8 8zm0 0" fill="#746250"/><g fill="#8d7761"><path d="m176 248h16v16h-16zm0 0"/><path d="m272 248h16v16h-16zm0 0"/><path d="m272.414062 72c-2.207031-4.3125-4.574218-8.566406-7.199218-12.703125l-2.0625-3.296875h-62.398438l-.675781 1.054688c-3.074219 4.832031-5.894531 9.820312-8.445313 14.945312zm0 0"/><path d="m179.785156 104h104.925782c-1.445313-5.417969-3.167969-10.757812-5.167969-16h-94.808594c-1.921875 5.246094-3.578125 10.585938-4.949219 16zm0 0"/><path d="m174.984375 136h114.902344c-.320313-5.359375-.910157-10.699219-1.765625-16h-111.554688c-.792968 5.304688-1.324218 10.644531-1.582031 16zm0 0"/><path d="m176.558594 168h112.113281c.734375-5.320312 1.191406-10.664062 1.398437-16h-115.085937c.265625 5.332031.792969 10.667969 1.574219 16zm0 0"/></g><path d="m208 336h48v48h-48zm0 0" fill="#746250"/><path d="m214.664062 344h41.335938v40h-41.335938zm0 0" fill="#6c5b4a"/><path d="m320 320h-176l16-32h144zm0 0" fill="#8d7761"/><path d="m280 320 1.398438 10.375-99.734376 5.625 2.335938-16 16-32 32-8 32 8zm0 0" fill="#a88e74"/><path d="m144 320h176v16h-176zm0 0" fill="#a28970"/><path d="m256 336h-48v-16l24-8 24 8zm0 0" fill="#8d7761"/><path d="m440 224h-64l-16-32h96zm0 0" fill="#8d7761"/><path d="m88 224h-64l-16-32h96zm0 0" fill="#8d7761"/><path d="m424 104h-32l6.054688-24.238281c1.144531-4.5625 5.242187-7.761719 9.945312-7.761719s8.800781 3.199219 9.945312 7.761719zm0 0" fill="#8d7761"/><path d="m72 104h-32l6.054688-24.238281c1.144531-4.5625 5.242187-7.761719 9.945312-7.761719s8.800781 3.199219 9.945312 7.761719zm0 0" fill="#8d7761"/></svg>