<svg id="Capa_1" enable-background="new 0 0 442.398 442.398" height="512" viewBox="0 0 442.398 442.398" width="512" xmlns="http://www.w3.org/2000/svg"><g><g><path d="m257.917 166.274h-81.616c13.118 20.843 16.246 46.453 8.531 69.842h62.559c0-.001-9.479-53.878 10.526-69.842z" fill="#d5d6db"/><path d="m345.269 75.229c.232-1.654.366-3.319.399-4.989-.028-20.204-16.414-36.567-36.617-36.567-2.532.013-5.055.28-7.533.799-5.036-19.5-24.925-31.228-44.427-26.192-3.395.877-6.645 2.238-9.651 4.043-7.744-7.887-18.332-12.327-29.384-12.323h-1.846c-11.036.003-21.606 4.444-29.334 12.322-17.296-10.372-39.726-4.758-50.098 12.538-1.796 2.994-3.153 6.231-4.03 9.611-2.477-.52-5.002-.787-7.533-.799-20.195 0-36.567 16.371-36.567 36.567.01 1.671.144 3.338.399 4.989-22.736 4.881-37.209 27.27-32.326 50.006 4.881 22.736 27.27 37.209 50.006 32.326 5.253-1.128 10.243-3.251 14.697-6.254 3.893 14.011 16.637 23.718 31.179 23.746 6.906-.007 13.626-2.247 19.157-6.385 6.522 4.176 14.107 6.392 21.85 6.385 8.425-.009 16.644-2.604 23.546-7.434 13.522 9.514 31.45 9.927 45.398 1.047 5.526 4.146 12.249 6.385 19.157 6.385 14.543-.028 27.286-9.735 31.179-23.746 6.984 4.855 15.29 7.45 23.796 7.434 23.254.097 42.182-18.677 42.278-41.93.084-20.079-14.023-37.422-33.698-41.431z" fill="#e1e6e9"/><path d="m378.793 116.387c.175 23.226-18.512 42.195-41.738 42.37-8.645.065-17.099-2.536-24.213-7.448-4.803 17.224-22.659 27.294-39.883 22.49-3.762-1.049-7.303-2.77-10.453-5.08-6.539 4.128-14.118 6.309-21.85 6.285-8.418-.007-16.632-2.583-23.546-7.384-13.528 9.428-31.379 9.86-45.348 1.097-14.418 10.576-34.68 7.46-45.255-6.958-2.31-3.15-4.031-6.691-5.08-10.453-6.984 4.855-15.29 7.45-23.796 7.434-23.282 0-42.155-18.873-42.155-42.154 0-.066 0-.134 0-.2-.009-2.09.157-4.175.499-6.235 2.953 20.74 20.706 36.153 41.656 36.168 8.528-.043 16.835-2.708 23.796-7.633 4.618 17.217 22.321 27.43 39.538 22.81 3.893-1.044 7.555-2.808 10.798-5.2 13.946 8.817 31.823 8.404 45.348-1.047 6.915 4.801 15.129 7.376 23.546 7.384 7.738.004 15.317-2.192 21.85-6.335 14.327 10.607 34.539 7.592 45.146-6.733 2.375-3.207 4.134-6.827 5.188-10.676 19.113 13.196 45.305 8.401 58.501-10.713 3.665-5.309 6.061-11.39 7-17.773.29 1.979.44 3.979.451 5.984z" fill="#d5d6db"/><path d="m396.602 442.398c-17.66-10.277-116.885-73.483-129.257-201.893h-92.292c-12.372 128.41-111.596 191.617-129.257 201.893z" fill="#3a556a"/><path d="m267.045 232.623v-1.097c-.386-3.949-3.715-6.953-7.683-6.934h-78.821c-3.933.024-7.229 2.978-7.683 6.884-2.843 25.891-3.892 45.895-12.073 67.797 5.438-5.737 13.02-13.02 14.966-20.603 4.112 9.218 6.513 19.107 7.084 29.184 7.087-9.266 13.299-19.17 18.558-29.583 3.599 8.378 5.138 17.496 4.489 26.59l7.633-26.041c.749-2.495 1.746-5.288 4.141-6.135 2.395-.849 6.235 1.696 8.231 4.339 6.397 8.44 11.353 17.879 14.668 27.937-.035-9.359 2.391-18.563 7.034-26.69 2.37 7.203 5.946 13.949 10.576 19.954l6.036-27.188c5.088 5.454 10.077 10.926 14.966 16.414-5.709-17.867-9.766-36.221-12.122-54.828z" fill="#ebf0f3"/><g fill="#d5d6db"><path d="m297.028 107.008c-1.047 0-2.046 0-3.093 0-17.909 1.405-33.566-11.973-34.973-29.881-1.407-17.909 11.973-33.566 29.881-34.973 1.695-.134 3.397-.134 5.091 0 1.029-.075 2.063-.075 3.093 0-17.909.994-31.622 16.317-30.627 34.227.917 16.52 14.107 29.71 30.628 30.627z"/><path d="m158.791 63.706c-.075-1.129-.075-2.263 0-3.392.411-19.916 16.888-35.727 36.804-35.318 19.916.411 35.727 16.888 35.318 36.804-.018.819-.062 1.637-.134 2.454 0 1.147 0 2.295-.35 3.442-.673-19.881-17.334-35.453-37.215-34.78-17.41.588-31.904 13.552-34.423 30.79z"/><path d="m209.726 109.253c0-.699 0-1.397 0-2.096.676-12.081 11.017-21.329 23.098-20.653s21.329 11.017 20.653 23.098c.046.681.046 1.364 0 2.046-.584-12.081-10.851-21.402-22.932-20.818-10.352.501-18.935 8.188-20.569 18.423z"/><path d="m134.246 132.45c-.075-1.013-.075-2.029 0-3.043.755-17.672 15.693-31.387 33.365-30.632s31.387 15.693 30.632 33.365c-.01.253-.025.507-.041.759-.048 1.019-.148 2.034-.3 3.043-.605-17.678-15.427-31.517-33.105-30.912-15.491.53-28.379 12.08-30.601 27.42z"/><path d="m107.358 113.592c-.599-.499-1.147-1.047-1.746-1.646-9.644-9.933-9.409-25.802.524-35.444s25.802-9.409 35.444.524c.554.564 1.071 1.165 1.546 1.796-9.644-9.877-25.467-10.067-35.346-.424-9.877 9.644-10.067 25.467-.424 35.346v-.151h.002z"/></g><g fill="#2f4859"><path d="m185.581 328.207-47.144 63.058-9.927 30.83 38.262-41.806z"/><path d="m220.103 299.123-4.74 40.757 33.275 74.432-16.662-57.619v-30.632z"/><path d="m268.493 330.302v36.518l23.397 35.818 8.88 25.492-2.146-31.877-22.698-31.928z"/></g></g></g></svg>