<svg height="472pt" viewBox="0 -4 472.00102 472" width="472pt" xmlns="http://www.w3.org/2000/svg"><path d="m320 32h-136l-.40625 1.234375c-4.53125 13.597656-17.257812 22.769531-31.59375 22.765625-8.835938 0-16 7.164062-16 16v6.625c0 6 2.382812 11.753906 6.625 16l17.375 17.375h36c6.628906 0 12 5.375 12 12 0 6.628906-5.371094 12-12 12h-20c-8.835938 0-16 7.164062-16 16l24 24-8 80v120c0 35.347656 28.65625 64 64 64h32.464844c35.089844 0 63.535156-28.445312 63.535156-63.535156v-304.464844zm-84 336c-11.042969 0-20-8.953125-20-20s8.957031-20 20-20c11.046875 0 20 8.953125 20 20s-8.953125 20-20 20zm0 0" fill="#d8d8d6"/><path d="m320 32h-136l-.40625 1.234375c-4.53125 13.597656-17.257812 22.769531-31.59375 22.765625-8.835938 0-16 7.164062-16 16v6.625c0 6 2.382812 11.753906 6.625 16l17.375 17.375h36c6.628906 0 12 5.375 12 12 0 6.628906-5.371094 12-12 12h-20c-8.835938 0-16 7.164062-16 16l24 24-8 80v120c0 35.347656 28.65625 64 64 64h32.464844c35.089844 0 63.535156-28.445312 63.535156-63.535156v-304.464844zm-84 336c-11.042969 0-20-8.953125-20-20s8.957031-20 20-20c11.046875 0 20 8.953125 20 20s-8.953125 20-20 20zm0 0" fill="#d8d8d6"/><path d="m336 270.664062v-90.664062l-8-36h8v-64l-.847656-3.398438c-4.464844-17.84375-14.957032-33.597656-29.695313-44.601562l-113.238281-8c-12.386719 10.167969-5.050781 6.496094-11.769531 16h27.953125c21.871094 0 39.597656 17.730469 39.597656 39.601562 0 10.503907 3.832031 28.566407-3.597656 36l-10.570313 9.453126c-26.820312 24.039062-45.613281 55.734374-53.832031 90.800781l-4 40.144531v16l81.535156-27.199219v-26.160156l10.464844-17.238281 20 6.597656v41.335938zm0 0" fill="#d3d3d1"/><path d="m184 32h32.402344c21.871094 0 39.597656 17.730469 39.597656 39.601562.003906 10.5-4.171875 20.574219-11.597656 28l-10.570313 9.453126c-41.417969 37.089843-62.859375 91.578124-57.832031 146.945312l72-24v-32l16-8 24 8v40l72 32-32-144h24l-16.847656-67.398438c-8.902344-35.617187-40.902344-60.601562-77.617188-60.601562h-9.535156c-25.179688 0-48.890625 11.855469-64 32zm0 0" fill="#ebebeb"/><g fill="#c9c9c7"><path d="m208 72c-1.042969-.011719-2.078125-.230469-3.039062-.640625-.96875-.40625-1.863282-.972656-2.640626-1.679687-1.503906-1.503907-2.339843-3.550782-2.320312-5.679688.015625-.507812.066406-1.019531.160156-1.519531.074219-.53125.238282-1.042969.480469-1.519531.175781-.511719.417969-1 .71875-1.449219.300781-.414063.621094-.8125.960937-1.191407 2.320313-2.238281 5.738282-2.894531 8.71875-1.679687.980469.386719 1.878907.957031 2.640626 1.679687.34375.378907.664062.777344.960937 1.191407.300781.449219.542969.9375.71875 1.449219.246094.476562.40625.988281.480469 1.519531.09375.5.148437 1.011719.160156 1.519531.023438 2.128906-.8125 4.175781-2.320312 5.679688-.777344.707031-1.667969 1.273437-2.640626 1.679687-.960937.410156-1.992187.628906-3.039062.640625zm0 0"/><path d="m232 328 56-16-1-1.75c-7.6875-13.449219-20.929688-22.804688-36.175781-25.554688-15.242188-2.75-30.921875 1.390626-42.824219 11.304688l-11.375-18.960938c-16.769531-27.9375-46.964844-45.035156-79.550781-45.039062l58.925781 88h14.113281c10.960938 0 20.984375 6.195312 25.886719 16z"/><path d="m288 360c-4.417969 0-8-3.582031-8-8v-8c0-4.417969 3.582031-8 8-8s8 3.582031 8 8v8c0 4.417969-3.582031 8-8 8zm0 0"/><path d="m304 392c-4.417969 0-8-3.582031-8-8v-8c0-4.417969 3.582031-8 8-8s8 3.582031 8 8v8c0 4.417969-3.582031 8-8 8zm0 0"/><path d="m272 400c-4.417969 0-8-3.582031-8-8v-8c0-4.417969 3.582031-8 8-8s8 3.582031 8 8v8c0 4.417969-3.582031 8-8 8zm0 0"/></g><path d="m472 464-76.976562-35.917969c-27.910157-13.023437-59.304688-16.582031-89.421876-10.136719l-30.082031 6.445313c-23.285156 4.992187-47.457031 4.019531-70.269531-2.820313-29.355469-8.808593-60.773438-7.84375-89.527344 2.75l-107.722656 39.679688zm0 0" fill="#6cbae5"/><path d="m305.601562 441.945312-30.082031 6.445313c-23.285156 4.992187-47.457031 4.019531-70.269531-2.820313-29.355469-8.808593-60.773438-7.84375-89.527344 2.75l-42.578125 15.679688h347.425781l-25.546874-11.917969c-27.910157-13.023437-59.304688-16.582031-89.421876-10.136719zm0 0" fill="#4799cf"/><path d="m256 8-8-8c25.09375 40.148438 29.1875 89.960938 10.976562 133.664062-7.246093 17.382813-10.976562 36.03125-10.976562 54.863282v27.472656l16-24 24 8v-121.816406c.003906-14.425782-4.503906-28.492188-12.894531-40.230469zm0 0" fill="#e0e0e0"/><path d="m257.535156 0c24.867188 36.242188 30.464844 80 33.257813 123.738281l-2.792969 36.261719v80l40 16-5.941406-130.808594c-1.335938-29.398437-11.785156-57.652344-29.898438-80.847656zm0 0" fill="#eaeae8"/><path d="m257.535156 0h-9.535156l6.847656 5.136719c36.804688 27.601562 62.140625 67.808593 71.160156 112.917969l1.992188 9.945312h24l-16.847656-67.398438c-8.902344-35.617187-40.902344-60.601562-77.617188-60.601562zm0 0" fill="#e0e0e0"/><path d="m8 192c-2.707031 0-5.230469-1.367188-6.707031-3.640625-1.476563-2.269531-1.703125-5.132813-.605469-7.605469l2.761719-6.210937c19.089843-42.875 61.617187-70.511719 108.550781-70.542969 4.417969 0 8 3.582031 8 8s-3.582031 8-8 8c-40.617188.019531-77.417969 23.9375-93.925781 61.046875l-2.761719 6.203125c-1.285156 2.886719-4.148438 4.75-7.3125 4.75zm0 0" fill="#6cbae5"/><path d="m42.664062 200c-2.707031 0-5.226562-1.371094-6.703124-3.644531-1.472657-2.269531-1.699219-5.128907-.601563-7.601563 13.324219-29.933594 42.03125-50.113281 74.707031-52.519531.632813-.15625 1.28125-.234375 1.933594-.234375h4.527344c4.421875 0 8 3.582031 8 8s-3.578125 8-8 8c-28.773438.015625-54.847656 16.960938-66.550782 43.25-1.285156 2.886719-4.148437 4.75-7.3125 4.75zm0 0" fill="#6cbae5"/></svg>