<svg id="Capa_1" enable-background="new 0 0 510 510" height="512" viewBox="0 0 510 510" width="512" xmlns="http://www.w3.org/2000/svg"><g><path d="m241.36 221.12h113.64v118.3h-113.64z" fill="#2f374f"/><path d="m120 221.12h121.36v118.3h-121.36z" fill="#1766a0"/><path d="m0 195h56.604v30h-56.604z" fill="#1982bf"/><path d="m241.36 97.94 13.64 88.64-13.64 66.15c-15.41.1-29.23 9.51-34.96 23.83l-4.61 11.52c-3.71 9.29-9.07 17.74-15.73 24.98s-14.62 13.27-23.57 17.74c-29.78 14.89-65.61 10.22-90.57-11.81l-1.04-.92c-19.16-16.91-29.3-41.8-27.42-67.28l5.27-71.07.3-4.04v-17.43c0-22 16.06-40.71 37.81-44.04l56.77-8.69c32.4-4.96 65.07-7.48 97.75-7.58z" fill="#64e1dc"/><path d="m461.31 246.44-27.1 38.37c-4.7 10.59-12.93 25.38-21.85 33.26l-1.05.92c-15.25 13.46-34.55 20.44-54.05 20.44-12.42 0-24.92-2.84-36.51-8.63-17.89-8.94-31.88-24.14-39.3-42.72l-4.61-11.52c-2.88-7.2-7.81-13.16-13.95-17.32-6.15-4.16-13.51-6.52-21.27-6.52-.09 0-.17 0-.26.01v-154.79c35.09-.12 70.19 2.57 104.96 8.06l88.68 14z" fill="#4bb9ec"/><path d="m241.36 385 13.64 60-13.64 57.68c-18.2-6.04-31.36-23.23-31.36-43.43v-74.25z" fill="#1982bf"/><path d="m241.36 97.94 13.64 52.06c-17.01.01-47.63 1.32-64.44 3.9l-141.6 22.64.07-.86v-17.43c0-22 16.06-40.71 37.81-44.04l56.77-8.69c32.4-4.96 65.07-7.48 97.75-7.58z" fill="#1982bf"/><g fill="#1766a0"><path d="m451.02 146.75-16.7 29.83-141.64-22.68c-8.45-1.3-16.94-2.27-25.46-2.92s-17.06-.98-25.6-.98h-.26v-52.06c35.09-.12 70.19 2.57 104.96 8.06l88.68 14z"/><path d="m355 430.4 17.37 34.03-17.37 40.57h-99.25c-5.02 0-9.86-.81-14.39-2.32v-117.68h43.11v45.4z"/><path d="m510 5v95l-37.5 20-37.5-20v-95z"/></g><path d="m510 100v325.75c0 43.7-35.55 79.25-79.25 79.25h-75.75v-74.6h54.78c13.93 0 25.22-11.3 25.22-25.22v-305.18z" fill="#2f374f"/></g></svg>