<svg id="Capa_1" enable-background="new 0 0 496.146 496.146" height="512" viewBox="0 0 496.146 496.146" width="512" xmlns="http://www.w3.org/2000/svg"><g><g><path d="m243.715 444.436h-47.81c-86.464 0-156.808-70.344-156.808-156.808v-37.321c0-4.142 3.358-7.5 7.5-7.5s7.5 3.358 7.5 7.5v37.321c0 78.193 63.615 141.808 141.808 141.808h47.81c4.142 0 7.5 3.358 7.5 7.5s-3.358 7.5-7.5 7.5z" fill="#fef1dc"/></g><g><path d="m301.247 444.436h-45.014c-4.142 0-7.5-3.358-7.5-7.5s3.358-7.5 7.5-7.5h45.014c78.193 0 141.808-63.615 141.808-141.808v-37.321c0-4.142 3.358-7.5 7.5-7.5s7.5 3.358 7.5 7.5v37.321c-.001 86.464-70.344 156.808-156.808 156.808z" fill="#fef1dc"/></g><path d="m248.126 456.411v2.511c0 20.19-16.367 36.557-36.557 36.557h-26.383c-2.41 0-4.363-1.953-4.363-4.363v-17.624c0-20.19 16.367-36.557 36.557-36.557h11.271 18.158z" fill="#fcd89f"/><path d="m200.563 487.061c0-20.19 16.367-36.557 36.557-36.557h10.606l-.918-13.568h-18.158-11.27c-20.19 0-36.557 16.367-36.557 36.557v17.624c0 2.409 1.953 4.363 4.363 4.363h15.378v-8.419z" fill="#fbc773"/><path d="m267.601 436.936h11.271c20.19 0 36.557 16.367 36.557 36.557v17.624c0 2.409-1.953 4.363-4.363 4.363h-26.383c-20.19 0-36.557-16.367-36.557-36.557v-2.511l1.225-16.622z" fill="#fcd89f"/><path d="m301.452 488.144c-20.19 0-36.557-16.367-36.557-36.557v-2.511l.873-11.853-16.417 2.567-1.225 16.622v2.511c0 20.19 16.367 36.557 36.557 36.557h26.383c2.41 0 4.363-1.953 4.363-4.363v-2.973z" fill="#fbc773"/><path d="m496.146 198.053v26.019c0 4.267-2.524 8.117-6.418 9.863-160.462 71.926-321.556 71.922-483.282-.01-3.909-1.74-6.446-5.598-6.446-9.876l.006-25.995 91.668-32.578h281.496z" fill="#e8b86b"/><path d="m256.829 419.547-12.258 2.747-1.822 25.5 14.099 6.536c6.371-3.202 10.753-9.779 10.753-17.395 0-7.62-4.392-14.192-10.772-17.388z" fill="#fcd89f"/><path d="m246.087 436.936c0-7.618 4.369-14.188 10.742-17.389-2.625-1.318-5.565-2.087-8.703-2.087-10.756 0-19.475 8.719-19.475 19.475s8.719 19.475 19.475 19.475c3.138 0 6.097-.762 8.723-2.081-6.373-3.199-10.762-9.775-10.762-17.393z" fill="#fbc773"/><g fill="#e8b86b"><path d="m427.105 142.631h-.003l.004.003c-.001 0-.003.001-.004.001v-.004l-19.895-4.466s-140.314 38.755-209.939 21.747-109.886-32.001-109.886-32.001l-18.24 14.644-69.136 55.499c166.05 75.81 331.43 75.81 496.14 0z"/><path d="m393.046 115.294.052.041.003-.002-141.142-113.302c-2.268-1.821-5.497-1.821-7.766 0l-140.918 113.123 2.576 7.922 122.38 24.411 171.106-19.831z"/></g><g><path d="m248.076.914 179.4 224.33v.01c-119.22 39.58-238.78 39.54-358.7-.13z" fill="#fbce85"/></g><path d="m427.476 225.244v.005c22.903-7.604 45.793-16.666 68.67-27.195l-7.992-6.416-88.816-1.58z" fill="#d7ab64"/><path d="m231.676 21.422-162.9 203.702c119.92 39.67 239.48 39.71 358.7.13v-.01l-28.138-35.185-118.892-2.115c-67.626-1.203-107.502-76.354-70.587-133.028z" fill="#fbc773"/><g><path d="m320.846 246.624.74 3.35c-48.96 6.62-97.99 6.58-147.08-.13l.8-3.22 72.77-245.71z" fill="#e8b86b"/></g><path d="m206.127 142.555-30.821 104.069-.8 3.22c49.09 6.71 98.12 6.75 147.08.13l-.74-3.35-17.257-58.268-23.144-.412c-33.671-.599-60.459-19.533-74.318-45.389z" fill="#d7ab64"/><g><path d="m244.193 2.031-244.187 196.023c22.937 10.472 45.86 19.49 68.771 27.068l162.829-203.613.092-.124.001.001 12.565-19.291.227-.289z" fill="#d7ab64"/></g><g><g id="XMLID_231_"><g><path d="m393.046 115.294 34.06 27.34c-118.96 39.41-238.27 39.38-357.92-.11l34.08-27.37h.01c96.82 25.91 193.41 25.95 289.77.14z" fill="#fbc773"/></g></g></g></g><path d="m201.553 132.567c-32.733-2.842-65.491-8.639-98.277-17.412h-.001l-20.649 16.575-13.44 10.794c54.248 17.904 108.425 27.697 162.532 29.38-13.744-9.932-24.171-23.742-30.165-39.337z" fill="#e8b86b"/></svg>